<svg xmlns="http://www.w3.org/2000/svg" version="1.1" xmlns:xlink="http://www.w3.org/1999/xlink" xmlns:svgjs="http://svgjs.dev/svgjs" width="1500" height="411" viewBox="0 0 1500 411"><g transform="matrix(1,0,0,1,-1.8466386554623568,-1.908214285714223)"><svg viewBox="0 0 357 98" data-background-color="#000000" preserveAspectRatio="xMidYMid meet" height="411" width="1500" xmlns="http://www.w3.org/2000/svg" xmlns:xlink="http://www.w3.org/1999/xlink"><g id="tight-bounds" transform="matrix(1,0,0,1,0.43950000000003797,0.4549999999999841)"><svg viewBox="0 0 356.12052 97.08979455399711" height="97.08979455399711" width="356.12052"><g><svg viewBox="0 0 356.12052 97.08979455399711" height="97.08979455399711" width="356.12052"><g><svg viewBox="0 0 356.12052 97.08979455399711" height="97.08979455399711" width="356.12052"><g><path d="M0 97.09v-97.09h356.121v97.09z" fill="#091627" stroke="transparent" stroke-width="0" rx="0%" data-fill-palette-color="tertiary"></path><path d="M9.85 87.24v-77.39h336.421v77.39z" fill="#091627" stroke="transparent" stroke-width="0" data-fill-palette-color="tertiary"></path></g><g transform="matrix(1,0,0,1,19.69974,19.69974)" id="textblocktransform"><svg viewBox="0 0 316.72104 57.69031455399711" height="57.69031455399711" width="316.72104" id="textblock"><g><svg viewBox="0 0 316.72104 35.51383899295341" height="35.51383899295341" width="316.72104"><g transform="matrix(1,0,0,1,0,0)"><svg width="316.72104" viewBox="3.05 -39.01 356.83 40.01" height="35.51383899295341" data-palette-color="url(#6bd3b277-f71d-415e-acfb-42a7490973e1)"></svg></g></svg></g><g transform="matrix(1,0,0,1,0,42.08041899295341)"><svg viewBox="0 0 316.72104 15.609895561043702" height="15.609895561043702" width="316.72104"><g transform="matrix(1,0,0,1,0,0)"><svg width="316.72104" viewBox="2.55 -35 931.22 45.9" height="15.609895561043702" data-palette-color="url(#6bd3b277-f71d-415e-acfb-42a7490973e1)"></svg></g></svg></g></svg></g></svg></g><g></g></svg></g><defs></defs><mask id="3460f361-4286-4f20-adac-326e61c70ec1"><g id="SvgjsG1152"><svg viewBox="0 0 356.12052 97.08979455399711" height="97.08979455399711" width="356.12052"><g><svg viewBox="0 0 356.12052 97.08979455399711" height="97.08979455399711" width="356.12052"><g><svg viewBox="0 0 356.12052 97.08979455399711" height="97.08979455399711" width="356.12052"><g><path d="M0 97.09v-97.09h356.121v97.09z" fill="black" stroke="transparent" stroke-width="0" rx="0%"></path><path d="M3.283 93.806v-90.523h349.554v90.523z" fill="white" stroke="transparent" stroke-width="0" rx="0%"></path><path d="M9.85 87.24v-77.39h336.421v77.39z" fill="black" stroke="transparent" stroke-width="0"></path></g><g transform="matrix(1,0,0,1,19.69974,19.69974)" id="SvgjsG1151"><svg viewBox="0 0 316.72104 57.69031455399711" height="57.69031455399711" width="316.72104" id="SvgjsSvg1150"><g><svg viewBox="0 0 316.72104 35.51383899295341" height="35.51383899295341" width="316.72104"><g transform="matrix(1,0,0,1,0,0)"><svg width="316.72104" viewBox="3.05 -39.01 356.83 40.01" height="35.51383899295341" data-palette-color="url(#6bd3b277-f71d-415e-acfb-42a7490973e1)"><path d="M35.5-38.01L35.5-26.39 33.64-26.39Q31.18-36.25 21.04-36.25L21.04-36.25Q14.06-36.25 10.25-30.42L10.25-30.42Q7.25-25.78 7.25-18.82L7.25-18.82Q7.25-12.94 10.03-8.69L10.03-8.69Q12.38-5.13 16.16-3.44L16.16-3.44Q18.7-2.29 21.58-2.29L21.58-2.29Q31.98-2.29 35.5-13.35L35.5-13.35 37.5-12.5Q35.45-5.59 31.71-2.47L31.71-2.47Q27.61 0.95 21.02 0.95L21.02 0.95Q12.94 0.95 7.89-4.79L7.89-4.79Q3.05-10.25 3.05-18.77L3.05-18.77Q3.05-25.83 6.4-31.05L6.4-31.05Q9.38-35.69 14.28-37.7L14.28-37.7Q17.38-38.96 20.85-38.96L20.85-38.96Q25.93-38.96 30.71-36.28L30.71-36.28Q31.86-35.64 32.5-35.64L32.5-35.64Q33.35-35.64 33.69-38.01L33.69-38.01 35.5-38.01ZM55.47 0L42.7 0 42.7-1.81Q45.73-1.93 46.58-2.83L46.58-2.83Q47.34-3.64 47.34-5.81L47.34-5.81 47.34-32.67Q47.34-34.81 46.38-35.5L46.38-35.5Q45.55-36.11 42.84-36.21L42.84-36.21 42.84-38.01Q47.29-38.04 50.88-39.01L50.88-39.01 50.88-5.81Q50.88-3.44 51.78-2.66L51.78-2.66Q52.59-1.95 55.47-1.81L55.47-1.81 55.47 0ZM76.46-17.46L78.56-17.55 78.56-18.31Q78.56-21.88 77-23.54L77-23.54Q76.19-24.39 74.73-24.98L74.73-24.98Q72.99-25.66 71.14-25.66L71.14-25.66Q68.16-25.66 66.23-24.71L66.23-24.71Q65.25-24.24 64.96-23.66L64.96-23.66Q66.35-23.12 66.35-21.24L66.35-21.24Q66.35-20.34 65.86-19.65L65.86-19.65Q65.11-18.6 63.69-18.6L63.69-18.6Q62.57-18.6 61.81-19.46L61.81-19.46Q61.01-20.39 61.01-21.83L61.01-21.83Q61.01-24.19 63.79-25.98L63.79-25.98Q66.91-28 71.28-28L71.28-28Q75.61-28 78.51-26.12L78.51-26.12Q82-23.85 82-17.26L82-17.26 82-6.01Q82-2.54 83.56-2.54L83.56-2.54Q84.96-2.54 86.15-5.05L86.15-5.05 87.59-3.2Q85.86 0.9 82.86 0.9L82.86 0.9Q78.93 0.9 78.61-4.35L78.61-4.35Q75.56 0.9 68.06 0.9L68.06 0.9Q63.79 0.9 61.37-2.15L61.37-2.15Q59.71-4.27 59.71-7.2L59.71-7.2Q59.71-11.87 64.37-14.5L64.37-14.5Q68.89-17.09 76.46-17.46L76.46-17.46ZM78.56-8.91L78.56-15.04 76.7-14.94Q70.31-14.6 66.87-12.7L66.87-12.7Q63.57-10.89 63.57-7.4L63.57-7.4Q63.57-5.13 64.79-3.78L64.79-3.78Q66.21-2.2 69.01-2.2L69.01-2.2Q71.77-2.2 74.31-3.52L74.31-3.52Q77-4.91 78.07-6.98L78.07-6.98Q78.56-7.96 78.56-8.91L78.56-8.91ZM90.72 0.71L90.72-9.79 92.42-9.79Q93.52-5.4 96.35-3.42L96.35-3.42Q99.31-1.34 102.46-1.34L102.46-1.34Q105.41-1.34 107.27-2.78L107.27-2.78Q109.05-4.15 109.05-6.15L109.05-6.15Q109.05-8.33 106.58-9.89L106.58-9.89Q105.1-10.84 102.26-11.84L102.26-11.84 100.87-12.35Q94.79-14.5 93.01-16.28L93.01-16.28Q91.25-18.04 91.25-20.92L91.25-20.92Q91.25-24.02 93.82-26.07L93.82-26.07Q96.21-28 100.46-28L100.46-28Q104.02-28 107.05-25.76L107.05-25.76Q107.59-25.34 108.15-25.34L108.15-25.34Q108.83-25.34 109.05-27L109.05-27 110.71-27 110.71-18.85 108.81-18.85Q107.98-21.8 106.05-23.61L106.05-23.61Q103.85-25.66 100.55-25.66L100.55-25.66Q97.89-25.66 96.43-24.54L96.43-24.54Q94.82-23.29 94.82-21.22L94.82-21.22Q94.82-19.73 96.23-18.6L96.23-18.6Q97.48-17.65 101.7-16.16L101.7-16.16 103.41-15.55Q108.68-13.7 110.73-11.79L110.73-11.79Q112.91-9.77 112.91-6.37L112.91-6.37Q112.91-2.93 110.05-0.95L110.05-0.95Q107.27 1 102.87 1L102.87 1Q98.85 1 95.72-1.1L95.72-1.1 95.6-1.17Q94.45-1.95 94.13-1.95L94.13-1.95Q93.3-1.95 92.42 0.71L92.42 0.71 90.72 0.71ZM117.71 0.71L117.71-9.79 119.42-9.79Q120.52-5.4 123.35-3.42L123.35-3.42Q126.31-1.34 129.46-1.34L129.46-1.34Q132.41-1.34 134.27-2.78L134.27-2.78Q136.05-4.15 136.05-6.15L136.05-6.15Q136.05-8.33 133.58-9.89L133.58-9.89Q132.09-10.84 129.26-11.84L129.26-11.84 127.87-12.35Q121.79-14.5 120.01-16.28L120.01-16.28Q118.25-18.04 118.25-20.92L118.25-20.92Q118.25-24.02 120.82-26.07L120.82-26.07Q123.21-28 127.46-28L127.46-28Q131.02-28 134.05-25.76L134.05-25.76Q134.58-25.34 135.15-25.34L135.15-25.34Q135.83-25.34 136.05-27L136.05-27 137.71-27 137.71-18.85 135.81-18.85Q134.98-21.8 133.05-23.61L133.05-23.61Q130.85-25.66 127.55-25.66L127.55-25.66Q124.89-25.66 123.43-24.54L123.43-24.54Q121.82-23.29 121.82-21.22L121.82-21.22Q121.82-19.73 123.23-18.6L123.23-18.6Q124.48-17.65 128.7-16.16L128.7-16.16 130.41-15.55Q135.68-13.7 137.73-11.79L137.73-11.79Q139.91-9.77 139.91-6.37L139.91-6.37Q139.91-2.93 137.05-0.95L137.05-0.95Q134.27 1 129.87 1L129.87 1Q125.84 1 122.72-1.1L122.72-1.1 122.6-1.17Q121.45-1.95 121.13-1.95L121.13-1.95Q120.3-1.95 119.42 0.71L119.42 0.71 117.71 0.71ZM177.5-38.01L177.5-26.39 175.65-26.39Q173.18-36.25 163.05-36.25L163.05-36.25Q156.07-36.25 152.26-30.42L152.26-30.42Q149.26-25.78 149.26-18.82L149.26-18.82Q149.26-12.94 152.04-8.69L152.04-8.69Q154.38-5.13 158.17-3.44L158.17-3.44Q160.71-2.29 163.59-2.29L163.59-2.29Q173.99-2.29 177.5-13.35L177.5-13.35 179.5-12.5Q177.45-5.59 173.72-2.47L173.72-2.47Q169.62 0.95 163.02 0.95L163.02 0.95Q154.94 0.95 149.89-4.79L149.89-4.79Q145.06-10.25 145.06-18.77L145.06-18.77Q145.06-25.83 148.4-31.05L148.4-31.05Q151.38-35.69 156.29-37.7L156.29-37.7Q159.39-38.96 162.85-38.96L162.85-38.96Q167.93-38.96 172.72-36.28L172.72-36.28Q173.86-35.64 174.5-35.64L174.5-35.64Q175.35-35.64 175.7-38.01L175.7-38.01 177.5-38.01ZM198.03-28L198.03-28Q204.57-28 208.24-22.88L208.24-22.88Q211-19.02 211-13.43L211-13.43Q211-7.74 208.29-3.96L208.29-3.96Q204.72 1 197.98 1L197.98 1Q192.2 1 188.66-2.78L188.66-2.78Q184.99-6.71 184.99-13.43L184.99-13.43Q184.99-19.73 188.41-23.71L188.41-23.71Q192.07-28 198.03-28ZM197.93-25.61L197.93-25.61Q194.61-25.61 192.25-23.17L192.25-23.17Q189-19.87 189-13.55L189-13.55Q189-8.45 191.71-4.88L191.71-4.88Q194.35-1.39 198.01-1.39L198.01-1.39Q201.35-1.39 203.94-4.44L203.94-4.44Q206.99-8.08 206.99-13.57L206.99-13.57Q206.99-18.65 204.77-21.92L204.77-21.92Q202.26-25.61 197.93-25.61ZM226.98 0L214.7 0 214.7-1.81Q217.51-1.93 218.39-2.76L218.39-2.76Q219.29-3.59 219.29-5.81L219.29-5.81 219.29-21.66Q219.29-23.83 218.34-24.51L218.34-24.51Q217.63-25 214.85-25.2L214.85-25.2 214.85-27Q219.2-27 222.79-28L222.79-28 222.79-23.24Q224.4-25.49 226.96-26.83L226.96-26.83Q229.23-28 231.53-28L231.53-28Q236.19-28 238.92-24.63L238.92-24.63Q241.14-21.88 241.14-16.99L241.14-16.99 241.14-5.81Q241.14-3.47 242.07-2.69L242.07-2.69Q242.93-1.95 245.78-1.81L245.78-1.81 245.78 0 233.41 0 233.41-1.81Q235.94-1.95 236.85-2.76L236.85-2.76Q237.65-3.47 237.65-5.81L237.65-5.81 237.65-17.14Q237.65-20.78 235.85-22.97L235.85-22.97Q234.11-25.1 231.21-25.1L231.21-25.1Q226.62-25.1 222.79-19.51L222.79-19.51 222.79-5.81Q222.79-3.52 223.64-2.76L223.64-2.76Q224.49-1.98 226.98-1.81L226.98-1.81 226.98 0ZM259.99 0L247.71 0 247.71-1.81Q250.52-1.93 251.4-2.76L251.4-2.76Q252.3-3.59 252.3-5.81L252.3-5.81 252.3-21.66Q252.3-23.83 251.35-24.51L251.35-24.51Q250.64-25 247.86-25.2L247.86-25.2 247.86-27Q252.2-27 255.79-28L255.79-28 255.79-23.24Q257.4-25.49 259.97-26.83L259.97-26.83Q262.24-28 264.53-28L264.53-28Q269.19-28 271.93-24.63L271.93-24.63Q274.15-21.88 274.15-16.99L274.15-16.99 274.15-5.81Q274.15-3.47 275.08-2.69L275.08-2.69Q275.93-1.95 278.79-1.81L278.79-1.81 278.79 0 266.41 0 266.41-1.81Q268.95-1.95 269.85-2.76L269.85-2.76Q270.66-3.47 270.66-5.81L270.66-5.81 270.66-17.14Q270.66-20.78 268.85-22.97L268.85-22.97Q267.12-25.1 264.21-25.1L264.21-25.1Q259.62-25.1 255.79-19.51L255.79-19.51 255.79-5.81Q255.79-3.52 256.65-2.76L256.65-2.76Q257.5-1.98 259.99-1.81L259.99-1.81 259.99 0ZM307.77-13.77L286.28-13.77 286.28-13.38Q286.28-9.45 287.84-6.59L287.84-6.59Q290.46-1.81 295.88-1.81L295.88-1.81Q301.88-1.81 305.89-7.96L305.89-7.96 307.47-6.37Q303.22 1 295.56 1L295.56 1Q288.82 1 285.13-4.05L285.13-4.05Q282.37-7.84 282.37-13.4L282.37-13.4Q282.37-19.14 285.45-23.17L285.45-23.17Q289.19-28 295.29-28L295.29-28Q299.56-28 302.74-25.59L302.74-25.59Q306.3-22.9 307.37-18.24L307.37-18.24Q307.77-16.55 307.77-14.77L307.77-14.77 307.77-13.77ZM286.38-16.16L303.57-16.16Q303.37-20.31 301.74-22.46L301.74-22.46Q299.32-25.66 295.34-25.66L295.34-25.66Q291.6-25.66 288.97-22.46L288.97-22.46Q286.87-19.92 286.38-16.16L286.38-16.16ZM336.69-8.25L338.26-6.64Q334.33 1 326.56 1L326.56 1Q322.31 1 319.07-1.25L319.07-1.25Q313.31-5.2 313.31-13.55L313.31-13.55Q313.31-19.07 316.06-22.8L316.06-22.8Q318.55-26.2 322.7-27.42L322.7-27.42Q324.76-28 326.9-28L326.9-28Q331.35-28 334.2-25.73L334.2-25.73Q336.77-23.73 336.77-21.41L336.77-21.41Q336.77-20.56 336.43-19.8L336.43-19.8Q335.69-18.26 333.96-18.26L333.96-18.26Q332.52-18.26 331.76-19.36L331.76-19.36Q331.3-20 331.3-20.87L331.3-20.87Q331.3-22.63 332.49-23.24L332.49-23.24Q330.96-25.61 326.95-25.61L326.95-25.61Q322.51-25.61 319.73-21.88L319.73-21.88Q317.31-18.6 317.31-13.55L317.31-13.55Q317.31-9.86 318.65-7.13L318.65-7.13Q319.87-4.61 322.05-3.2L322.05-3.2Q324.22-1.81 326.9-1.81L326.9-1.81Q332.91-1.81 336.69-8.25L336.69-8.25ZM346.12-24.61L340.35-24.61 340.35-26.95Q344.31-27.69 346.14-30.27L346.14-30.27Q347.46-32.15 347.85-35.45L347.85-35.45 349.66-35.45 349.66-27 358.74-27 358.74-24.61 349.66-24.61 349.66-7.86Q349.66-4.96 350.39-3.66L350.39-3.66Q351.27-2.2 353.39-2.2L353.39-2.2Q356.66-2.2 358.74-5.3L358.74-5.3 359.88-3.39Q357.03 0.85 352.41 0.85L352.41 0.85Q348.7 0.85 347.12-2.22L347.12-2.22Q346.12-4.17 346.12-7.5L346.12-7.5 346.12-24.61Z" opacity="1" transform="matrix(1,0,0,1,0,0)" fill="white" class="wordmark-text-0" id="SvgjsPath1149"></path></svg></g></svg></g><g transform="matrix(1,0,0,1,0,42.08041899295341)"><svg viewBox="0 0 316.72104 15.609895561043702" height="15.609895561043702" width="316.72104"><g transform="matrix(1,0,0,1,0,0)"><svg width="316.72104" viewBox="2.55 -35 931.22 45.9" height="15.609895561043702" data-palette-color="url(#6bd3b277-f71d-415e-acfb-42a7490973e1)"><path d="M32.1-10.15L35.45-7.35Q33-3.75 29.23-1.55 25.45 0.65 20.3 0.65L20.3 0.65Q15.4 0.65 11.33-1.63 7.25-3.9 4.9-7.95 2.55-12 2.55-17.1L2.55-17.1Q2.55-22.35 4.85-26.43 7.15-30.5 11-32.75 14.85-35 19.3-35L19.3-35Q22.9-35 25.68-33.7 28.45-32.4 30.35-30.05L30.35-30.05 30.4-34.3 35.05-34.3 35.05-23.15 31.75-22.85Q28.15-30.85 20.05-30.85L20.05-30.85Q16.8-30.85 14.03-29.18 11.25-27.5 9.58-24.38 7.9-21.25 7.9-17.15L7.9-17.15Q7.9-13.25 9.55-10.18 11.2-7.1 14.03-5.35 16.85-3.6 20.3-3.6L20.3-3.6Q24.35-3.6 27.18-5.35 30-7.1 32.1-10.15L32.1-10.15ZM52.35 0.7Q48.9 0.7 45.9-0.85 42.9-2.4 41.12-5.25 39.35-8.1 39.35-11.75L39.35-11.75Q39.35-15.45 41.12-18.28 42.9-21.1 45.9-22.65 48.9-24.2 52.35-24.2L52.35-24.2Q55.75-24.2 58.72-22.65 61.7-21.1 63.5-18.25 65.3-15.4 65.3-11.75L65.3-11.75Q65.3-8.1 63.55-5.25 61.8-2.4 58.82-0.85 55.85 0.7 52.35 0.7L52.35 0.7ZM52.35-3.25Q54.6-3.25 56.4-4.3 58.2-5.35 59.22-7.28 60.25-9.2 60.25-11.75L60.25-11.75Q60.25-14.3 59.22-16.23 58.2-18.15 56.4-19.2 54.6-20.25 52.35-20.25L52.35-20.25Q48.9-20.25 46.67-17.93 44.45-15.6 44.45-11.75L44.45-11.75Q44.45-7.9 46.67-5.58 48.9-3.25 52.35-3.25L52.35-3.25ZM98.35-3.95L103.05-3.95 103.05 0 89.15 0 89.15-3.95 93.5-3.95 93.5-13.7Q93.5-16.45 92.12-18.03 90.75-19.6 88.2-19.6L88.2-19.6Q83.85-19.6 79-14.1L79-14.1 79-3.95 83.35-3.95 83.35 0 68.8 0 68.8-3.95 74.1-3.95 74.1-19.6 68.8-19.6 68.8-23.55 79-23.55 79-18Q81.8-21.1 84.37-22.63 86.95-24.15 89.9-24.15L89.9-24.15Q93.95-24.15 96.15-21.55 98.35-18.95 98.35-13.85L98.35-13.85 98.35-3.95ZM134.74-3.95L139.44-3.95 139.44 0 125.54 0 125.54-3.95 129.89-3.95 129.89-13.7Q129.89-16.45 128.52-18.03 127.14-19.6 124.59-19.6L124.59-19.6Q120.24-19.6 115.39-14.1L115.39-14.1 115.39-3.95 119.74-3.95 119.74 0 105.19 0 105.19-3.95 110.49-3.95 110.49-19.6 105.19-19.6 105.19-23.55 115.39-23.55 115.39-18Q118.19-21.1 120.77-22.63 123.34-24.15 126.29-24.15L126.29-24.15Q130.34-24.15 132.54-21.55 134.74-18.95 134.74-13.85L134.74-13.85 134.74-3.95ZM163.84-6.7L165.94-3.5Q161.14 0.7 154.99 0.7L154.99 0.7Q151.64 0.7 148.64-0.7 145.64-2.1 143.79-4.8 141.94-7.5 141.94-11.2L141.94-11.2Q141.94-15.15 143.84-18.1 145.74-21.05 148.79-22.63 151.84-24.2 155.19-24.2L155.19-24.2Q158.14-24.2 160.47-23.25 162.79-22.3 164.12-20.6 165.44-18.9 165.44-16.7L165.44-16.7Q165.44-13.4 162.62-11.58 159.79-9.75 155.84-9.75L155.84-9.75Q153.29-9.75 151.09-10.28 148.89-10.8 146.64-11.8L146.64-11.8 146.64-11.35Q146.64-9 147.77-7.2 148.89-5.4 150.79-4.45 152.69-3.5 154.94-3.5L154.94-3.5Q160.04-3.5 163.84-6.7L163.84-6.7ZM155.54-20.3Q152.84-20.3 150.52-18.75 148.19-17.2 147.19-14.55L147.19-14.55Q150.99-13.2 154.79-13.2L154.79-13.2Q157.29-13.2 158.92-14.13 160.54-15.05 160.54-16.7L160.54-16.7Q160.54-18.3 159.14-19.3 157.74-20.3 155.54-20.3L155.54-20.3ZM191.14-7L193.34-3.8Q188.69 0.7 182.49 0.7L182.49 0.7Q179.19 0.7 176.29-0.85 173.39-2.4 171.64-5.23 169.89-8.05 169.89-11.7L169.89-11.7Q169.89-15.15 171.49-18.03 173.09-20.9 175.79-22.55 178.49-24.2 181.64-24.2L181.64-24.2Q186.64-24.2 189.44-20.65L189.44-20.65 189.44-23.55 192.99-23.55 192.99-15.3 190.89-15.15Q188.44-20.15 183.09-20.15L183.09-20.15Q180.79-20.15 178.94-19.07 177.09-18 176.04-16.1 174.99-14.2 174.99-11.75L174.99-11.75Q174.99-9.35 176.11-7.45 177.24-5.55 179.06-4.53 180.89-3.5 182.99-3.5L182.99-3.5Q185.44-3.45 187.31-4.35 189.19-5.25 191.14-7L191.14-7ZM214.84-5.35L216.54-1.65Q214.69-0.55 212.91 0.05 211.14 0.65 208.84 0.65L208.84 0.65Q204.99 0.65 202.71-1.78 200.44-4.2 200.44-8.7L200.44-8.7 200.44-19.6 195.19-19.6 195.19-23.55 200.44-23.55 200.44-30.1 205.34-30.1 205.34-23.55 213.14-23.55 213.14-19.6 205.34-19.6 205.34-8.65Q205.34-6.1 206.49-4.9 207.64-3.7 209.59-3.7L209.59-3.7Q210.99-3.7 212.24-4.13 213.49-4.55 214.84-5.35L214.84-5.35ZM221.33 9.85L219.93 8.45Q222.23 6.05 223.53 4.13 224.83 2.2 225.13 0.3L225.13 0.3Q224.18 0.6 222.83 0.6L222.83 0.6Q221.38 0.6 220.36-0.28 219.33-1.15 219.33-2.55L219.33-2.55Q219.33-4 220.46-4.98 221.58-5.95 223.28-5.95L223.28-5.95Q225.33-5.95 226.61-4.55 227.88-3.15 227.88-1L227.88-1Q227.88 1.6 226.13 4.38 224.38 7.15 221.33 9.85L221.33 9.85ZM274.83-11.9L279.68-11.9 279.68 0 247.53 0 247.53-4.15 253.98-4.15 253.98-30.15 247.53-30.15 247.53-34.3 265.53-34.3 265.53-30.15 259.13-30.15 259.13-4.15 274.83-4.15 274.83-11.9ZM306.07-6.7L308.18-3.5Q303.38 0.7 297.23 0.7L297.23 0.7Q293.88 0.7 290.88-0.7 287.88-2.1 286.02-4.8 284.18-7.5 284.18-11.2L284.18-11.2Q284.18-15.15 286.07-18.1 287.98-21.05 291.02-22.63 294.07-24.2 297.43-24.2L297.43-24.2Q300.38-24.2 302.7-23.25 305.02-22.3 306.35-20.6 307.68-18.9 307.68-16.7L307.68-16.7Q307.68-13.4 304.85-11.58 302.02-9.75 298.07-9.75L298.07-9.75Q295.52-9.75 293.32-10.28 291.13-10.8 288.88-11.8L288.88-11.8 288.88-11.35Q288.88-9 290-7.2 291.13-5.4 293.02-4.45 294.93-3.5 297.18-3.5L297.18-3.5Q302.27-3.5 306.07-6.7L306.07-6.7ZM297.77-20.3Q295.07-20.3 292.75-18.75 290.43-17.2 289.43-14.55L289.43-14.55Q293.23-13.2 297.02-13.2L297.02-13.2Q299.52-13.2 301.15-14.13 302.77-15.05 302.77-16.7L302.77-16.7Q302.77-18.3 301.38-19.3 299.98-20.3 297.77-20.3L297.77-20.3ZM338.02-4.15L339.02-0.6Q337.37 0.4 335.17 0.4L335.17 0.4Q333.32 0.4 332.05-0.68 330.77-1.75 330.27-3.75L330.27-3.75Q325.27 0.7 320.37 0.7L320.37 0.7Q316.92 0.7 314.52-1.25 312.12-3.2 312.12-6.7L312.12-6.7Q312.12-9.1 313.47-10.88 314.82-12.65 317.1-13.58 319.37-14.5 322.02-14.5L322.02-14.5Q324.27-14.5 326.17-14.08 328.07-13.65 330.07-12.85L330.07-12.85 330.07-15.05Q330.07-17.6 328.37-18.8 326.67-20 323.92-20L323.92-20Q320.02-20 314.52-17.85L314.52-17.85 313.52-21.65Q319.42-24.15 324.52-24.15L324.52-24.15Q329.37-24.15 332.05-21.78 334.72-19.4 334.72-14.85L334.72-14.85 334.72-6.2Q334.72-3.75 336.47-3.75L336.47-3.75Q337.22-3.75 338.02-4.15L338.02-4.15ZM316.97-6.95Q316.97-5.25 318.32-4.33 319.67-3.4 321.62-3.4L321.62-3.4Q323.32-3.4 325.52-4.3 327.72-5.2 330.07-6.95L330.07-6.95 330.07-9.6Q326.67-10.8 322.87-10.9L322.87-10.9Q320.42-10.9 318.7-9.88 316.97-8.85 316.97-6.95L316.97-6.95ZM362.62-24.15L364.72-24.15 364.72-14.15 360.37-14.15 360.37-19.3Q358.42-19.3 356.12-17.85 353.82-16.4 351.37-13.75L351.37-13.75 351.37-3.95 356.72-3.95 356.72 0 341.17 0 341.17-3.95 346.47-3.95 346.47-19.6 341.17-19.6 341.17-23.55 351.37-23.55 351.37-17.65Q354.02-20.7 356.9-22.43 359.77-24.15 362.62-24.15L362.62-24.15ZM398.17-3.95L402.87-3.95 402.87 0 388.97 0 388.97-3.95 393.32-3.95 393.32-13.7Q393.32-16.45 391.94-18.03 390.57-19.6 388.02-19.6L388.02-19.6Q383.67-19.6 378.82-14.1L378.82-14.1 378.82-3.95 383.17-3.95 383.17 0 368.62 0 368.62-3.95 373.92-3.95 373.92-19.6 368.62-19.6 368.62-23.55 378.82-23.55 378.82-18Q381.62-21.1 384.19-22.63 386.77-24.15 389.72-24.15L389.72-24.15Q393.77-24.15 395.97-21.55 398.17-18.95 398.17-13.85L398.17-13.85 398.17-3.95ZM409.12 9.85L407.71 8.45Q410.01 6.05 411.31 4.13 412.62 2.2 412.92 0.3L412.92 0.3Q411.96 0.6 410.62 0.6L410.62 0.6Q409.17 0.6 408.14-0.28 407.12-1.15 407.12-2.55L407.12-2.55Q407.12-4 408.24-4.98 409.37-5.95 411.06-5.95L411.06-5.95Q413.12-5.95 414.39-4.55 415.67-3.15 415.67-1L415.67-1Q415.67 1.6 413.92 4.38 412.17 7.15 409.12 9.85L409.12 9.85ZM461.86-4.15L462.86-0.6Q461.21 0.4 459.01 0.4L459.01 0.4Q457.16 0.4 455.88-0.68 454.61-1.75 454.11-3.75L454.11-3.75Q449.11 0.7 444.21 0.7L444.21 0.7Q440.76 0.7 438.36-1.25 435.96-3.2 435.96-6.7L435.96-6.7Q435.96-9.1 437.31-10.88 438.66-12.65 440.94-13.58 443.21-14.5 445.86-14.5L445.86-14.5Q448.11-14.5 450.01-14.08 451.91-13.65 453.91-12.85L453.91-12.85 453.91-15.05Q453.91-17.6 452.21-18.8 450.51-20 447.76-20L447.76-20Q443.86-20 438.36-17.85L438.36-17.85 437.36-21.65Q443.26-24.15 448.36-24.15L448.36-24.15Q453.21-24.15 455.88-21.78 458.56-19.4 458.56-14.85L458.56-14.85 458.56-6.2Q458.56-3.75 460.31-3.75L460.31-3.75Q461.06-3.75 461.86-4.15L461.86-4.15ZM440.81-6.95Q440.81-5.25 442.16-4.33 443.51-3.4 445.46-3.4L445.46-3.4Q447.16-3.4 449.36-4.3 451.56-5.2 453.91-6.95L453.91-6.95 453.91-9.6Q450.51-10.8 446.71-10.9L446.71-10.9Q444.26-10.9 442.53-9.88 440.81-8.85 440.81-6.95L440.81-6.95ZM494.56-3.95L499.26-3.95 499.26 0 485.36 0 485.36-3.95 489.71-3.95 489.71-13.7Q489.71-16.45 488.33-18.03 486.96-19.6 484.41-19.6L484.41-19.6Q480.06-19.6 475.21-14.1L475.21-14.1 475.21-3.95 479.56-3.95 479.56 0 465.01 0 465.01-3.95 470.31-3.95 470.31-19.6 465.01-19.6 465.01-23.55 475.21-23.55 475.21-18Q478.01-21.1 480.58-22.63 483.16-24.15 486.11-24.15L486.11-24.15Q490.16-24.15 492.36-21.55 494.56-18.95 494.56-13.85L494.56-13.85 494.56-3.95ZM530.11-4.05L531.15-0.45Q530.45-0.05 529.45 0.23 528.45 0.5 527.36 0.5L527.36 0.5Q525.5 0.5 524.15-0.48 522.8-1.45 522.3-3.3L522.3-3.3Q520.3-1.5 518.08-0.4 515.86 0.7 513.15 0.7L513.15 0.7Q510.1 0.7 507.48-0.85 504.85-2.4 503.31-5.18 501.75-7.95 501.75-11.45L501.75-11.45Q501.75-15.1 503.38-18.03 505-20.95 507.81-22.58 510.6-24.2 514-24.2L514-24.2Q518.36-24.2 522-21L522-21 522-30.35 516.7-30.35 516.7-34.3 526.8-34.3 526.8-6.05Q526.8-3.65 528.45-3.65L528.45-3.65Q529.55-3.65 530.11-4.05L530.11-4.05ZM506.85-11.5Q506.85-7.9 508.88-5.7 510.9-3.5 514.15-3.5L514.15-3.5Q517.9-3.5 522-6.9L522-6.9 522-17.25Q518.5-20.05 515.11-20.05L515.11-20.05Q512.75-20.05 510.85-18.95 508.95-17.85 507.9-15.9 506.85-13.95 506.85-11.5L506.85-11.5ZM567.35-30.85Q563.9-30.85 561-29.18 558.1-27.5 556.4-24.4 554.7-21.3 554.7-17.15L554.7-17.15Q554.7-13.15 556.37-10.08 558.05-7 560.97-5.3 563.9-3.6 567.55-3.6L567.55-3.6Q573.85-3.6 578-6.85L578-6.85 578-13.5 567-13.5 567-17.45 582.7-17.45 582.7-4.7Q580.1-2.3 576.15-0.8 572.2 0.7 567.55 0.7L567.55 0.7Q562.2 0.7 558.07-1.58 553.95-3.85 551.65-7.93 549.35-12 549.35-17.15L549.35-17.15Q549.35-22.25 551.65-26.33 553.95-30.4 557.8-32.7 561.65-35 566.2-35L566.2-35Q570-35 573.02-33.68 576.05-32.35 578.15-30.1L578.15-30.1 578.15-34.3 582.7-34.3 582.7-23.65 579.45-23.4Q577.6-26.75 574.6-28.8 571.6-30.85 567.35-30.85L567.35-30.85ZM609.35-24.15L611.45-24.15 611.45-14.15 607.1-14.15 607.1-19.3Q605.15-19.3 602.85-17.85 600.55-16.4 598.1-13.75L598.1-13.75 598.1-3.95 603.45-3.95 603.45 0 587.9 0 587.9-3.95 593.2-3.95 593.2-19.6 587.9-19.6 587.9-23.55 598.1-23.55 598.1-17.65Q600.75-20.7 603.62-22.43 606.5-24.15 609.35-24.15L609.35-24.15ZM628.24 0.7Q624.79 0.7 621.79-0.85 618.79-2.4 617.02-5.25 615.24-8.1 615.24-11.75L615.24-11.75Q615.24-15.45 617.02-18.28 618.79-21.1 621.79-22.65 624.79-24.2 628.24-24.2L628.24-24.2Q631.64-24.2 634.62-22.65 637.59-21.1 639.39-18.25 641.19-15.4 641.19-11.75L641.19-11.75Q641.19-8.1 639.44-5.25 637.69-2.4 634.72-0.85 631.74 0.7 628.24 0.7L628.24 0.7ZM628.24-3.25Q630.49-3.25 632.29-4.3 634.09-5.35 635.12-7.28 636.14-9.2 636.14-11.75L636.14-11.75Q636.14-14.3 635.12-16.23 634.09-18.15 632.29-19.2 630.49-20.25 628.24-20.25L628.24-20.25Q624.79-20.25 622.57-17.93 620.34-15.6 620.34-11.75L620.34-11.75Q620.34-7.9 622.57-5.58 624.79-3.25 628.24-3.25L628.24-3.25ZM685.59-23.55L685.59-19.6 682.04-19.6 674.29 0.65 671.84 0.65 664.19-15.75 656.59 0.65 654.09 0.65 646.44-19.6 642.79-19.6 642.79-23.55 655.59-23.55 655.59-19.95 651.24-19.95 656.04-6.2 663.34-22.9 666.04-22.9 673.24-6.4 677.89-19.95 673.54-19.95 673.54-23.55 685.59-23.55ZM702.89-34.3L737.99-34.3 737.99-23.05 733.39-23.05 733.39-30.15 723.04-30.15 723.04-4.15 729.54-4.15 729.54 0 711.34 0 711.34-4.15 717.89-4.15 717.89-30.15 707.49-30.15 707.49-23.05 702.89-23.05 702.89-34.3ZM752.33 0.7Q748.88 0.7 745.88-0.85 742.88-2.4 741.11-5.25 739.33-8.1 739.33-11.75L739.33-11.75Q739.33-15.45 741.11-18.28 742.88-21.1 745.88-22.65 748.88-24.2 752.33-24.2L752.33-24.2Q755.73-24.2 758.71-22.65 761.68-21.1 763.48-18.25 765.28-15.4 765.28-11.75L765.28-11.75Q765.28-8.1 763.53-5.25 761.78-2.4 758.81-0.85 755.83 0.7 752.33 0.7L752.33 0.7ZM752.33-3.25Q754.58-3.25 756.38-4.3 758.18-5.35 759.21-7.28 760.23-9.2 760.23-11.75L760.23-11.75Q760.23-14.3 759.21-16.23 758.18-18.15 756.38-19.2 754.58-20.25 752.33-20.25L752.33-20.25Q748.88-20.25 746.66-17.93 744.43-15.6 744.43-11.75L744.43-11.75Q744.43-7.9 746.66-5.58 748.88-3.25 752.33-3.25L752.33-3.25ZM787.93-4.45Q791.13-4.45 793.11-2.85 795.08-1.25 795.08 1.65L795.08 1.65Q795.08 4.45 792.98 6.55 790.88 8.65 787.33 9.78 783.78 10.9 779.63 10.9L779.63 10.9Q774.58 10.9 771.36 9.03 768.13 7.15 768.13 3.9L768.13 3.9Q768.13 2.45 768.91 1.18 769.68-0.1 770.88-1.05L770.88-1.05Q769.88-1.8 769.36-2.83 768.83-3.85 768.83-5L768.83-5Q768.83-6.85 769.88-8.33 770.93-9.8 772.63-10.8L772.63-10.8Q770.93-12.9 770.93-15.6L770.93-15.6Q770.93-18.3 772.51-20.25 774.08-22.2 776.53-23.2 778.98-24.2 781.53-24.2L781.53-24.2Q784.48-24.2 786.98-23.1L786.98-23.1Q787.88-25.7 789.91-27.05 791.93-28.4 794.73-28.5L794.73-28.5 794.73-24.4Q792.78-24.3 791.46-23.75 790.13-23.2 789.13-21.85L789.13-21.85Q792.23-19.5 792.23-15.75L792.23-15.75Q792.23-13.05 790.68-11.1 789.13-9.15 786.66-8.15 784.18-7.15 781.53-7.15L781.53-7.15Q777.68-7.15 774.63-9.05L774.63-9.05Q773.13-7.7 773.13-6.15L773.13-6.15Q773.13-4.85 774.16-4.13 775.18-3.4 776.98-3.4L776.98-3.4Q778.68-3.4 782.08-3.9L782.08-3.9Q783.43-4.1 784.98-4.28 786.53-4.45 787.93-4.45L787.93-4.45ZM781.58-20.7Q779.13-20.7 777.43-19.28 775.73-17.85 775.73-15.6L775.73-15.6Q775.73-13.35 777.41-12 779.08-10.65 781.58-10.65L781.58-10.65Q784.18-10.65 785.81-12.05 787.43-13.45 787.43-15.75L787.43-15.75Q787.43-18 785.76-19.35 784.08-20.7 781.58-20.7L781.58-20.7ZM780.33 6.85Q782.98 6.85 785.36 6.25 787.73 5.65 789.16 4.53 790.58 3.4 790.58 1.95L790.58 1.95Q790.58-0.6 786.88-0.6L786.88-0.6Q785.88-0.6 784.68-0.45 783.48-0.3 782.33-0.1L782.33-0.1Q780.93 0.15 779.31 0.35 777.68 0.55 776.13 0.55L776.13 0.55Q774.78 0.55 773.38 0.2L773.38 0.2Q772.38 1.35 772.38 2.9L772.38 2.9Q772.38 4.75 774.48 5.8 776.58 6.85 780.33 6.85L780.33 6.85ZM819.68-6.7L821.78-3.5Q816.98 0.7 810.83 0.7L810.83 0.7Q807.48 0.7 804.48-0.7 801.48-2.1 799.63-4.8 797.78-7.5 797.78-11.2L797.78-11.2Q797.78-15.15 799.68-18.1 801.58-21.05 804.63-22.63 807.68-24.2 811.03-24.2L811.03-24.2Q813.98-24.2 816.3-23.25 818.63-22.3 819.95-20.6 821.28-18.9 821.28-16.7L821.28-16.7Q821.28-13.4 818.45-11.58 815.63-9.75 811.68-9.75L811.68-9.75Q809.13-9.75 806.93-10.28 804.73-10.8 802.48-11.8L802.48-11.8 802.48-11.35Q802.48-9 803.6-7.2 804.73-5.4 806.63-4.45 808.53-3.5 810.78-3.5L810.78-3.5Q815.88-3.5 819.68-6.7L819.68-6.7ZM811.38-20.3Q808.68-20.3 806.35-18.75 804.03-17.2 803.03-14.55L803.03-14.55Q806.83-13.2 810.63-13.2L810.63-13.2Q813.13-13.2 814.75-14.13 816.38-15.05 816.38-16.7L816.38-16.7Q816.38-18.3 814.98-19.3 813.58-20.3 811.38-20.3L811.38-20.3ZM843.78-5.35L845.48-1.65Q843.63-0.55 841.85 0.05 840.08 0.65 837.78 0.65L837.78 0.65Q833.93 0.65 831.65-1.78 829.38-4.2 829.38-8.7L829.38-8.7 829.38-19.6 824.13-19.6 824.13-23.55 829.38-23.55 829.38-30.1 834.28-30.1 834.28-23.55 842.08-23.55 842.08-19.6 834.28-19.6 834.28-8.65Q834.28-6.1 835.43-4.9 836.58-3.7 838.53-3.7L838.53-3.7Q839.93-3.7 841.18-4.13 842.43-4.55 843.78-5.35L843.78-5.35ZM875.72-3.95L880.42-3.95 880.42 0 866.52 0 866.52-3.95 870.87-3.95 870.87-13.7Q870.87-16.6 869.5-18.2 868.12-19.8 865.52-19.8L865.52-19.8Q861.47-19.8 856.52-14.3L856.52-14.3 856.52-3.95 860.82-3.95 860.82 0 846.32 0 846.32-3.95 851.62-3.95 851.62-30.35 846.32-30.35 846.32-34.3 856.52-34.3 856.52-18.15Q859.27-21.15 861.85-22.65 864.42-24.15 867.47-24.15L867.47-24.15Q871.52-24.15 873.62-21.58 875.72-19 875.72-13.85L875.72-13.85 875.72-3.95ZM904.77-6.7L906.87-3.5Q902.07 0.7 895.92 0.7L895.92 0.7Q892.57 0.7 889.57-0.7 886.57-2.1 884.72-4.8 882.87-7.5 882.87-11.2L882.87-11.2Q882.87-15.15 884.77-18.1 886.67-21.05 889.72-22.63 892.77-24.2 896.12-24.2L896.12-24.2Q899.07-24.2 901.4-23.25 903.72-22.3 905.05-20.6 906.37-18.9 906.37-16.7L906.37-16.7Q906.37-13.4 903.55-11.58 900.72-9.75 896.77-9.75L896.77-9.75Q894.22-9.75 892.02-10.28 889.82-10.8 887.57-11.8L887.57-11.8 887.57-11.35Q887.57-9 888.7-7.2 889.82-5.4 891.72-4.45 893.62-3.5 895.87-3.5L895.87-3.5Q900.97-3.5 904.77-6.7L904.77-6.7ZM896.47-20.3Q893.77-20.3 891.45-18.75 889.12-17.2 888.12-14.55L888.12-14.55Q891.92-13.2 895.72-13.2L895.72-13.2Q898.22-13.2 899.85-14.13 901.47-15.05 901.47-16.7L901.47-16.7Q901.47-18.3 900.07-19.3 898.67-20.3 896.47-20.3L896.47-20.3ZM931.67-24.15L933.77-24.15 933.77-14.15 929.42-14.15 929.42-19.3Q927.47-19.3 925.17-17.85 922.87-16.4 920.42-13.75L920.42-13.75 920.42-3.95 925.77-3.95 925.77 0 910.22 0 910.22-3.95 915.52-3.95 915.52-19.6 910.22-19.6 910.22-23.55 920.42-23.55 920.42-17.65Q923.07-20.7 925.94-22.43 928.82-24.15 931.67-24.15L931.67-24.15Z" opacity="1" transform="matrix(1,0,0,1,0,0)" fill="white" class="slogan-text-1" id="SvgjsPath1148"></path></svg></g></svg></g></svg></g></svg></g><g></g></svg></g><defs><mask></mask></defs></svg><rect width="356.12052" height="97.08979455399711" fill="black" stroke="none" visibility="hidden"></rect></g></mask><linearGradient x1="0.054" x2="0.941" y1="0.5" y2="0.5" id="6bd3b277-f71d-415e-acfb-42a7490973e1"><stop stop-color="#9c7945" offset="0"></stop><stop stop-color="#faf3aa" offset="0.498"></stop><stop stop-color="#9c7945" offset="1"></stop></linearGradient><rect width="356.121" height="97.09" fill="url(#6bd3b277-f71d-415e-acfb-42a7490973e1)" mask="url(#3460f361-4286-4f20-adac-326e61c70ec1)" data-fill-palette-color="quaternary"></rect></svg><rect width="356.12052" height="97.08979455399711" fill="none" stroke="none" visibility="hidden"></rect></g></svg></g></svg>